PathFileType	4	(X/Y/Z)	C:/Users/beibeiliu/ov580/test_trc/User2\sequence.4_training_dense_left.trc
DataRate	CameraRate	NumFrames	NumMarkers	Units	OrigDataRate	OrigDataStartFrame	OrigNumFrames
120	120	7	19	mm	120	27	80
Frame#	Time	ThumbCMC			ThumbMCP			ThumbIP			ThumbTip			IndexMCP			IndexPIP			IndexTip			MiddleMCP			MiddlePIP			MiddleTip			RingMCP			RingPIP			RingTip			PinkyMCP			PinkyPIP			PinkyTip			BackHand1			BackHand2			BackHand3	
		X0	Y0	Z0	X1	Y1	Z1	X2	Y2	Z2	X3	Y3	Z3	X4	Y4	Z4	X5	Y5	Z5	X6	Y6	Z6	X7	Y7	Z7	X8	Y8	Z8	X9	Y9	Z9	X10	Y10	Z10	X11	Y11	Z11	X12	Y12	Z12	X13	Y13	Z13	X14	Y14	Z14	X15	Y15	Z15	X16	Y16	Z16	X17	Y17	Z17	X18	Y18	Z18	
26	0.216667	-214.064	-19.1736	-38.9694	-198.61	9.50015	-59.4771	-170.521	21.7026	-76.3269	-143.78	20.4431	-79.9521	-177.148	-48.7737	-103.82	-160.549	-54.5787	-126.07	-147.816	-56.9898	-148.548	-138.381	-39.3599	-97.2212	-127.393	-6.46884	-100.975	-141.248	14.6317	-70.8861	-125.102	-36.8704	-84.1155	-117.768	-4.98795	-80.7053	-141.441	6.6378	-53.9017	-114.213	-40.9725	-57.8002	-115.397	-6.81967	-59.4513	-138.06	-0.226385	-39.4872	-157.838	-70.7734	-38.732	-178.476	-78.6622	-7.70857	-198.911	-61.8153	-41.4181	
27	0.225	-219.414	-27.1343	-38.3468	-209.71	2.09929	-63.0252	-182.39	12.8421	-90.1556	-155.289	11.5771	-98.8422	-190.501	-62.0418	-103.484	-183.105	-68.8944	-133.543	-168.025	-74.5638	-153.936	-157.64	-51.1644	-107.92	-139.616	-19.9564	-112.217	-156.732	5.18105	-82.4306	-137.826	-51.3886	-91.6472	-129.988	-17.6382	-94.2378	-145.522	-2.2184	-69.0738	-125.249	-53.4877	-69.8921	-122.707	-22.6864	-78.4771	-141.975	-7.89334	-55.6667	-171.837	-75.6715	-41.5531	-183.378	-80.1911	-8.90315	-205.774	-68.7828	-42.4216	
28	0.233333	-229.352	-26.9015	-41.8692	-216.209	-4.25758	-63.7389	-193.804	5.91228	-92.4053	-170.022	4.22106	-105.117	-209.29	-68.6566	-108.252	-203.062	-75.1748	-133.162	-192.996	-83.715	-162.749	-178.946	-60.6553	-110.792	-159.686	-28.3003	-123.659	-162.731	-5.55064	-94.7502	-155.607	-58.3533	-102.357	-147.122	-27.955	-108.936	-157.537	-8.90205	-82.6768	-143.841	-62.0274	-81.0666	-134.51	-29.8474	-90.9524	-148.789	-11.3318	-68.1956	-179.32	-83.0516	-47.0897	-193.733	-82.641	-10.7125	-218.394	-72.4064	-39.6602	
29	0.241667	-231.807	-23.0019	-36.361	-217.092	-4.63801	-65.4579	-200.934	8.10002	-96.1724	-176.32	2.00501	-113.259	-225.449	-66.8862	-105.618	-226.536	-72.8696	-134.314	-223.755	-78.8821	-164.455	-191.86	-65.8819	-115.123	-173.547	-36.4737	-129.188	-172.717	-8.34277	-98.3452	-172.611	-65.6907	-106.641	-158.886	-38.6633	-115.894	-160.007	-16.2396	-89.0159	-159.278	-68.4276	-87.6209	-146.518	-38.7467	-100.691	-155.488	-18.45	-76.988	-196.275	-82.5213	-45.9827	-201.744	-81.6545	-14.8587	-229.38	-68.8154	-37.9493	
30	0.25	-225.552	-20.1693	-36.7634	-212.231	1.18711	-66.6948	-193.053	4.97393	-92.4633	-173.185	-5.25605	-113.501	-241.019	-57.8392	-107.319	-240.03	-63.9353	-130.396	-240.65	-70.1904	-163.264	-204.646	-65.3696	-112.592	-180.616	-41.0461	-131.827	-169.338	-16.4244	-104.107	-183.287	-69.6894	-110.229	-162.96	-44.7521	-118.388	-165.161	-20.8449	-91.9159	-166.995	-74.8088	-92.318	-151.611	-49.6839	-104.008	-154.566	-24.26	-77.6189	-201.93	-86.643	-48.7424	-206.053	-82.1833	-13.2381	-232.673	-64.0215	-36.3158	
31	0.258333	-215.869	-13.2219	-31.9389	-197.275	4.86883	-63.806	-181.026	2.60213	-91.6862	-165.16	-8.09116	-116.081	-243.44	-46.6245	-103.746	-250.241	-45.5183	-128.012	-254.453	-48.4102	-157.775	-213.96	-60.0485	-115.979	-187.136	-42.5545	-133.028	-166.803	-19.7997	-107.523	-191.11	-73.1419	-107.434	-171.328	-54.3282	-121.247	-159.821	-30.5308	-93.944	-175.494	-83.4782	-90.815	-153.384	-59.3175	-105.813	-150.669	-38.8609	-83.3882	-211.419	-83.4907	-46.8804	-211.813	-78.0519	-11.649	-234.99	-51.0638	-34.5811	
32	0.266667	-202.232	-12.7598	-31.6171	-181.497	-1.07511	-60.8467	-164.899	-4.11969	-93.3787	-155.936	-23.2191	-113.435	-239.927	-31.4913	-96.5681	-247.821	-30.9915	-126.23	-254.026	-31.6997	-154.178	-217.694	-59.2183	-111.042	-189.769	-50.5947	-134.991	-161.776	-34.036	-111.074	-200.714	-73.6845	-107.998	-173.94	-64.5657	-122.386	-155.613	-46.2797	-96.1841	-184.872	-91.3417	-93.2101	-161.903	-71.2375	-107.29	-150.543	-53.3727	-81.1593	-218.486	-82.3048	-47.1334	-216.148	-76.8903	-11.0334	-228.44	-49.3705	-31.169	
